<mxfile host="app.diagrams.net" modified="2023-10-16T15:20:12.420Z" agent="Mozilla/5.0 (X11; Linux x86_64) AppleWebKit/537.36 (KHTML, like Gecko) Chrome/117.0.0.0 Safari/537.36" etag="6ZXbF3AuhkuKDJK8EGIa" version="22.0.4" type="github">
  <diagram name="Page-1" id="60wICm4SN73Yag35uj9H">
    <mxGraphModel dx="1362" dy="1903" grid="1" gridSize="10" guides="1" tooltips="1" connect="1" arrows="1" fold="1" page="1" pageScale="1" pageWidth="850" pageHeight="1100" math="0" shadow="0">
      <root>
        <mxCell id="0" />
        <mxCell id="1" parent="0" />
        <mxCell id="fkw81stNaoIXrTj7AZlf-8" style="edgeStyle=orthogonalEdgeStyle;rounded=0;orthogonalLoop=1;jettySize=auto;html=1;exitX=1;exitY=0.5;exitDx=0;exitDy=0;entryX=0.588;entryY=1.013;entryDx=0;entryDy=0;entryPerimeter=0;" edge="1" parent="1" source="fkw81stNaoIXrTj7AZlf-2" target="fkw81stNaoIXrTj7AZlf-3">
          <mxGeometry relative="1" as="geometry">
            <mxPoint x="140" y="500" as="targetPoint" />
            <Array as="points">
              <mxPoint x="407" y="430" />
            </Array>
          </mxGeometry>
        </mxCell>
        <mxCell id="fkw81stNaoIXrTj7AZlf-14" style="edgeStyle=orthogonalEdgeStyle;rounded=0;orthogonalLoop=1;jettySize=auto;html=1;exitX=1;exitY=0.75;exitDx=0;exitDy=0;entryX=0.038;entryY=0.65;entryDx=0;entryDy=0;entryPerimeter=0;" edge="1" parent="1" source="fkw81stNaoIXrTj7AZlf-2" target="fkw81stNaoIXrTj7AZlf-13">
          <mxGeometry relative="1" as="geometry">
            <mxPoint x="580" y="500" as="targetPoint" />
            <Array as="points">
              <mxPoint x="210" y="502" />
            </Array>
          </mxGeometry>
        </mxCell>
        <mxCell id="fkw81stNaoIXrTj7AZlf-2" value="" style="whiteSpace=wrap;html=1;aspect=fixed;fillColor=#f8cecc;strokeColor=#b85450;" vertex="1" parent="1">
          <mxGeometry x="110" y="430" width="100" height="100" as="geometry" />
        </mxCell>
        <mxCell id="fkw81stNaoIXrTj7AZlf-9" style="edgeStyle=orthogonalEdgeStyle;rounded=0;orthogonalLoop=1;jettySize=auto;html=1;exitX=1;exitY=0.25;exitDx=0;exitDy=0;" edge="1" parent="1" source="fkw81stNaoIXrTj7AZlf-3" target="fkw81stNaoIXrTj7AZlf-7">
          <mxGeometry relative="1" as="geometry" />
        </mxCell>
        <mxCell id="fkw81stNaoIXrTj7AZlf-11" style="edgeStyle=orthogonalEdgeStyle;rounded=0;orthogonalLoop=1;jettySize=auto;html=1;exitX=0.25;exitY=0;exitDx=0;exitDy=0;entryX=0.5;entryY=1;entryDx=0;entryDy=0;" edge="1" parent="1" source="fkw81stNaoIXrTj7AZlf-3" target="fkw81stNaoIXrTj7AZlf-5">
          <mxGeometry relative="1" as="geometry" />
        </mxCell>
        <mxCell id="fkw81stNaoIXrTj7AZlf-12" style="edgeStyle=orthogonalEdgeStyle;rounded=0;orthogonalLoop=1;jettySize=auto;html=1;exitX=0.75;exitY=0;exitDx=0;exitDy=0;" edge="1" parent="1" source="fkw81stNaoIXrTj7AZlf-3" target="fkw81stNaoIXrTj7AZlf-6">
          <mxGeometry relative="1" as="geometry" />
        </mxCell>
        <mxCell id="fkw81stNaoIXrTj7AZlf-3" value="172.16.0.66&lt;br&gt;ssh,http" style="whiteSpace=wrap;html=1;aspect=fixed;fillColor=#dae8fc;strokeColor=#6c8ebf;" vertex="1" parent="1">
          <mxGeometry x="360" y="250" width="80" height="80" as="geometry" />
        </mxCell>
        <mxCell id="fkw81stNaoIXrTj7AZlf-4" value="192.168.0.1&lt;br&gt;ssh,ftp,http" style="whiteSpace=wrap;html=1;aspect=fixed;fillColor=#dae8fc;strokeColor=#6c8ebf;" vertex="1" parent="1">
          <mxGeometry x="130" y="110" width="80" height="80" as="geometry" />
        </mxCell>
        <mxCell id="fkw81stNaoIXrTj7AZlf-5" value="192.168.0.6&lt;br&gt;ftp,8080(http)" style="whiteSpace=wrap;html=1;aspect=fixed;fillColor=#dae8fc;strokeColor=#6c8ebf;" vertex="1" parent="1">
          <mxGeometry x="270" y="-30" width="80" height="80" as="geometry" />
        </mxCell>
        <mxCell id="fkw81stNaoIXrTj7AZlf-6" value="192.168.0.10&lt;br&gt;ftp,http" style="whiteSpace=wrap;html=1;aspect=fixed;fillColor=#dae8fc;strokeColor=#6c8ebf;" vertex="1" parent="1">
          <mxGeometry x="470" y="-40" width="80" height="80" as="geometry" />
        </mxCell>
        <mxCell id="fkw81stNaoIXrTj7AZlf-7" value="192.168.0.14&lt;br&gt;ssh,httpc" style="whiteSpace=wrap;html=1;aspect=fixed;fillColor=#dae8fc;strokeColor=#6c8ebf;" vertex="1" parent="1">
          <mxGeometry x="630" y="100" width="80" height="80" as="geometry" />
        </mxCell>
        <mxCell id="fkw81stNaoIXrTj7AZlf-10" style="edgeStyle=orthogonalEdgeStyle;rounded=0;orthogonalLoop=1;jettySize=auto;html=1;exitX=0;exitY=0.5;exitDx=0;exitDy=0;entryX=0.363;entryY=1.038;entryDx=0;entryDy=0;entryPerimeter=0;" edge="1" parent="1" source="fkw81stNaoIXrTj7AZlf-3" target="fkw81stNaoIXrTj7AZlf-4">
          <mxGeometry relative="1" as="geometry" />
        </mxCell>
        <mxCell id="fkw81stNaoIXrTj7AZlf-13" value="172.16.0.101&lt;br&gt;telnet,http" style="whiteSpace=wrap;html=1;aspect=fixed;fillColor=#fa6800;fontColor=#000000;strokeColor=#C73500;" vertex="1" parent="1">
          <mxGeometry x="590" y="450" width="80" height="80" as="geometry" />
        </mxCell>
        <mxCell id="fkw81stNaoIXrTj7AZlf-15" value="172.16.0.92&lt;br&gt;http" style="whiteSpace=wrap;html=1;aspect=fixed;fillColor=#e6d0de;strokeColor=#996185;gradientColor=#d5739d;" vertex="1" parent="1">
          <mxGeometry x="360" y="820" width="80" height="80" as="geometry" />
        </mxCell>
      </root>
    </mxGraphModel>
  </diagram>
</mxfile>
